HIERARCHY
ROOT Hips
{
  OFFSET 5.80788e-005 67.184 3.4734
  CHANNELS 6 Xposition Yposition Zposition Zrotation Xrotation Yrotation
  JOINT Chest
  {
    OFFSET 0 8.7983 -4.7612
    CHANNELS 3 Zrotation Xrotation Yrotation
    JOINT Chest2
    {
      OFFSET 0 8.0291 0.4195
      CHANNELS 3 Zrotation Xrotation Yrotation
      JOINT Chest3
      {
        OFFSET 0 9.9351 -2.2114
        CHANNELS 3 Zrotation Xrotation Yrotation
        JOINT Neck
        {
          OFFSET 0 22.3885 -0.4656
          CHANNELS 3 Zrotation Xrotation Yrotation
          JOINT Head
          {
            OFFSET -0.0001 12.643 3.4389
            CHANNELS 3 Zrotation Xrotation Yrotation
            End Site
            {
              OFFSET 0.0001 17.6655 0.5274
            }
          }
        }
        JOINT LeftCollar
        {
          OFFSET 2.2603 21.606 7.4023
          CHANNELS 3 Zrotation Xrotation Yrotation
          JOINT LeftShoulder
          {
            OFFSET 13.5163 -1.1332 -5.0146
            CHANNELS 3 Zrotation Xrotation Yrotation
            JOINT LeftElbow
            {
              OFFSET -0.0995 -28.05 -0.2431
              CHANNELS 3 Zrotation Xrotation Yrotation
              JOINT LeftWrist
              {
                OFFSET 0.0679 -23.3996 -0.1402
                CHANNELS 3 Zrotation Xrotation Yrotation
                JOINT LeftFinger1
                {
                  OFFSET 0.7932 -9.069 2.5189
                  CHANNELS 3 Zrotation Xrotation Yrotation
                  JOINT LeftFinger11
                  {
                    OFFSET -0.8272 -3.3923 0.5977
                    CHANNELS 3 Zrotation Xrotation Yrotation
                    JOINT LeftFinger12
                    {
                      OFFSET -0.5649 -2.3158 0.4082
                      CHANNELS 3 Zrotation Xrotation Yrotation
                      End Site
                      {
                        OFFSET -0.4919 -1.6479 0.2673
                      }
                    }
                  }
                }
                JOINT LeftFinger2
                {
                  OFFSET 0.9159 -9.2044 0.2193
                  CHANNELS 3 Zrotation Xrotation Yrotation
                  JOINT LeftFinger21
                  {
                    OFFSET 0.0117 -4.1944 -0.0248
                    CHANNELS 3 Zrotation Xrotation Yrotation
                    JOINT LeftFinger22
                    {
                      OFFSET 0.0071 -2.3249 -0.0142
                      CHANNELS 3 Zrotation Xrotation Yrotation
                      End Site
                      {
                        OFFSET -0.1475 -2.0882 0.0028
                      }
                    }
                  }
                }
                JOINT LeftFinger3
                {
                  OFFSET 0.6113 -8.7231 -2.0637
                  CHANNELS 3 Zrotation Xrotation Yrotation
                  JOINT LeftFinger31
                  {
                    OFFSET -0.1927 -3.8059 -0.2383
                    CHANNELS 3 Zrotation Xrotation Yrotation
                    JOINT LeftFinger32
                    {
                      OFFSET -0.1091 -2.1688 -0.1362
                      CHANNELS 3 Zrotation Xrotation Yrotation
                      End Site
                      {
                        OFFSET -0.2358 -1.9176 -0.0906
                      }
                    }
                  }
                }
                JOINT LeftFinger4
                {
                  OFFSET -0.6151 -8.0947 -3.5641
                  CHANNELS 3 Zrotation Xrotation Yrotation
                  JOINT LeftFinger41
                  {
                    OFFSET -0.4882 -2.341 -0.6462
                    CHANNELS 3 Zrotation Xrotation Yrotation
                    JOINT LeftFinger42
                    {
                      OFFSET -0.3575 -1.7167 -0.4742
                      CHANNELS 3 Zrotation Xrotation Yrotation
                      End Site
                      {
                        OFFSET -0.4187 -1.5237 -0.3496
                      }
                    }
                  }
                }
                JOINT LeftFinger0
                {
                  OFFSET -1.42 -1.8761 1.4223
                  CHANNELS 3 Zrotation Xrotation Yrotation
                  JOINT LeftFinger01
                  {
                    OFFSET -1.1471 -3.4929 2.6334
                    CHANNELS 3 Zrotation Xrotation Yrotation
                    JOINT LeftFinger02
                    {
                      OFFSET -0.823 -2.3 1.6571
                      CHANNELS 3 Zrotation Xrotation Yrotation
                      End Site
                      {
                        OFFSET -0.5822 -1.6914 1.1582
                      }
                    }
                  }
                }
              }
            }
          }
        }
        JOINT RightCollar
        {
          OFFSET -2.2603 21.606 7.4023
          CHANNELS 3 Zrotation Xrotation Yrotation
          JOINT RightShoulder
          {
            OFFSET -13.5187 -1.1334 -5.0155
            CHANNELS 3 Zrotation Xrotation Yrotation
            JOINT RightElbow
            {
              OFFSET 0.0994 -28.0499 -0.2431
              CHANNELS 3 Zrotation Xrotation Yrotation
              JOINT RightWrist
              {
                OFFSET -0.0679 -23.3996 -0.1402
                CHANNELS 3 Zrotation Xrotation Yrotation
                JOINT RightFinger1
                {
                  OFFSET -0.7932 -9.0691 2.5189
                  CHANNELS 3 Zrotation Xrotation Yrotation
                  JOINT RightFinger11
                  {
                    OFFSET 0.8272 -3.3923 0.5977
                    CHANNELS 3 Zrotation Xrotation Yrotation
                    JOINT RightFinger12
                    {
                      OFFSET 0.565 -2.3158 0.4082
                      CHANNELS 3 Zrotation Xrotation Yrotation
                      End Site
                      {
                        OFFSET 0.4919 -1.6479 0.2673
                      }
                    }
                  }
                }
                JOINT RightFinger2
                {
                  OFFSET -0.916 -9.2044 0.2193
                  CHANNELS 3 Zrotation Xrotation Yrotation
                  JOINT RightFinger21
                  {
                    OFFSET -0.0117 -4.1944 -0.0248
                    CHANNELS 3 Zrotation Xrotation Yrotation
                    JOINT RightFinger22
                    {
                      OFFSET -0.0071 -2.3249 -0.0142
                      CHANNELS 3 Zrotation Xrotation Yrotation
                      End Site
                      {
                        OFFSET 0.1475 -2.0882 0.0028
                      }
                    }
                  }
                }
                JOINT RightFinger3
                {
                  OFFSET -0.6113 -8.7231 -2.0637
                  CHANNELS 3 Zrotation Xrotation Yrotation
                  JOINT RightFinger31
                  {
                    OFFSET 0.1927 -3.8059 -0.2383
                    CHANNELS 3 Zrotation Xrotation Yrotation
                    JOINT RightFinger32
                    {
                      OFFSET 0.1091 -2.1688 -0.1362
                      CHANNELS 3 Zrotation Xrotation Yrotation
                      End Site
                      {
                        OFFSET 0.2358 -1.9176 -0.0906
                      }
                    }
                  }
                }
                JOINT RightFinger4
                {
                  OFFSET 0.6151 -8.0947 -3.564
                  CHANNELS 3 Zrotation Xrotation Yrotation
                  JOINT RightFinger41
                  {
                    OFFSET 0.4882 -2.341 -0.6462
                    CHANNELS 3 Zrotation Xrotation Yrotation
                    JOINT RightFinger42
                    {
                      OFFSET 0.3574 -1.7166 -0.4742
                      CHANNELS 3 Zrotation Xrotation Yrotation
                      End Site
                      {
                        OFFSET 0.4187 -1.5237 -0.3496
                      }
                    }
                  }
                }
                JOINT RightFinger0
                {
                  OFFSET 1.4199 -1.8761 1.4221
                  CHANNELS 3 Zrotation Xrotation Yrotation
                  JOINT RightFinger01
                  {
                    OFFSET 1.1472 -3.4929 2.6336
                    CHANNELS 3 Zrotation Xrotation Yrotation
                    JOINT RightFinger02
                    {
                      OFFSET 0.8229 -2.3 1.6571
                      CHANNELS 3 Zrotation Xrotation Yrotation
                      End Site
                      {
                        OFFSET 0.5822 -1.6914 1.1582
                      }
                    }
                  }
                }
              }
            }
          }
        }
      }
    }
  }
  JOINT RightHip
  {
    OFFSET -9.412 3.9771 -0.7758
    CHANNELS 3 Zrotation Xrotation Yrotation
    JOINT RightKnee
    {
      OFFSET -0.7531 -40.938 0
      CHANNELS 3 Zrotation Xrotation Yrotation
      JOINT RightAnkle
      {
        OFFSET 0 -40.1986 0
        CHANNELS 3 Zrotation Xrotation Yrotation
        JOINT RightToe
        {
          OFFSET 0 -4.4182 9.239
          CHANNELS 3 Zrotation Xrotation Yrotation
          End Site
          {
            OFFSET 0 0 6.1981
          }
        }
      }
    }
  }
  JOINT LeftHip
  {
    OFFSET 9.4119 3.9773 -0.7758
    CHANNELS 3 Zrotation Xrotation Yrotation
    JOINT LeftKnee
    {
      OFFSET 0.7532 -40.9383 0
      CHANNELS 3 Zrotation Xrotation Yrotation
      JOINT LeftAnkle
      {
        OFFSET 0 -40.1986 0
        CHANNELS 3 Zrotation Xrotation Yrotation
        JOINT LeftToe
        {
          OFFSET 0 -4.4182 9.239
          CHANNELS 3 Zrotation Xrotation Yrotation
          End Site
          {
            OFFSET 0 0 6.1981
          }
        }
      }
    }
  }
}
MOTION
Frames:	4
Frame Time:	0.0333333
1.63373 9.00115 14.8492 6.59049e-008 21.6234 1.68835e-007 0.0695605 17.4682 -0.539788 0.348142 34.9349 -1.19334 0.348136 34.9347 -1.19333 5.86239e-005 -48.0046 7.71946e-005 -10.4988 -33.8717 -5.34114 46.1157 12.9172 -29.5045 113.444 -51.7055 84.0198 -2.51253 -67.5429 47.8205 -45.4036 -0.928465 -7.52947 3.97569e-015 -7.98805e-007 -0 -1.87905e-005 -8.02157e-006 -3.63146e-006 -3.18055e-015 0 -6.36111e-015 3.97569e-015 -7.98805e-007 -0 -0.0128321 0.00233147 8.57325e-005 -3.97569e-015 -7.95139e-015 -0 3.97569e-015 -7.98805e-007 -0 -0.0160667 0.00300457 0.000858688 2.38542e-015 -1.59028e-015 3.18055e-015 3.97569e-015 -7.98805e-007 -0 -0.0125699 0.00311514 0.00282372 7.95139e-016 3.18055e-015 9.54166e-015 3.97569e-015 -7.98805e-007 -0 -1.87905e-005 -8.02157e-006 -3.63146e-006 -3.18055e-015 0 -6.36111e-015 -19.0648 -0.623007 17.5235 -130.367 -59.4439 -44.5344 14.4405 -47.0005 -47.892 60.6595 -40.9481 16.6375 -1.3299e-006 3.05493e-006 4.74226e-007 1.3299e-006 -1.22008e-006 -4.74226e-007 -1.3299e-006 1.22008e-006 4.74226e-007 -1.3299e-006 3.05493e-006 4.74226e-007 0.0129792 0.00232118 -8.34079e-005 1.08979e-005 -2.76329e-006 -3.0558e-006 -1.3299e-006 3.05493e-006 4.74226e-007 0.0162875 0.00302759 -0.00087081 5.1684e-015 2.78299e-015 -0 -1.3299e-006 3.05493e-006 4.74226e-007 0.0145915 0.00368306 -0.0032654 -2.48481e-015 -2.38542e-015 3.18055e-015 -1.3299e-006 3.05493e-006 4.74226e-007 1.3299e-006 -1.22008e-006 -4.74226e-007 -1.3299e-006 1.22008e-006 4.74226e-007 -62.4362 -1.49497 -23.7471 -14.8077 85.6608 13.7034 -2.94583 -3.48438 -1.51712 1.71579e-006 -1.75467e-006 -2.69464e-006 62.2531 -1.53303 23.5488 14.8087 85.6396 -13.7134 3.01336 -3.70431 1.21626 6.83322e-017 9.93923e-017 -1.86186e-015 
1.63374 8.95873 14.676 1.0279e-008 21.7484 9.24694e-010 0.0695253 17.4639 -0.539713 0.347965 34.9264 -1.19311 0.347959 34.9262 -1.1931 5.83176e-005 -48.0046 7.68607e-005 -10.7801 -33.7897 -5.49822 45.6664 12.0085 -29.4671 112.686 -51.9747 83.4781 -2.4821 -67.5341 47.8491 -45.6282 -0.402511 -7.02586 2.38542e-015 0 -3.18055e-015 -2.6058e-006 -1.45308e-006 5.97431e-006 -1.16515e-006 -3.79933e-006 -1.74124e-007 2.38542e-015 0 -3.18055e-015 -0.0127628 0.00231508 9.27931e-005 7.35527e-007 -6.63277e-007 -4.47247e-006 2.38542e-015 0 -3.18055e-015 -0.0160558 0.00299398 0.000869927 -1.59028e-015 -3.18055e-015 3.18055e-015 2.38542e-015 0 -3.18055e-015 -0.0125487 0.00310085 0.00282639 2.38542e-015 -3.18055e-015 3.18055e-015 2.38542e-015 0 -3.18055e-015 -2.6058e-006 -1.45308e-006 5.97431e-006 -1.16515e-006 -3.79933e-006 -1.74124e-007 -19.0731 -0.710244 17.4019 -130.367 -59.4439 -44.5344 14.4405 -47.0005 -47.892 60.6595 -40.9481 16.6374 -5.96354e-016 -3.97569e-016 6.36111e-015 -6.32896e-008 -8.78041e-007 1.60321e-006 6.32895e-008 -1.87803e-006 -1.60321e-006 -5.96354e-016 -3.97569e-016 6.36111e-015 0.0129275 0.00230694 -8.81023e-005 -6.3486e-008 2.71251e-008 1.60321e-006 -5.96354e-016 -3.97569e-016 6.36111e-015 0.016321 0.00302951 -0.00086882 -1.49089e-015 -2.38542e-015 -0 -5.96354e-016 -3.97569e-016 6.36111e-015 0.0146543 0.00369512 -0.00327551 1.59028e-015 1.59028e-015 9.54166e-015 -5.96354e-016 -3.97569e-016 6.36111e-015 -6.32896e-008 -8.78041e-007 1.60321e-006 6.32895e-008 -1.87803e-006 -1.60321e-006 -62.5882 -1.74116 -23.9154 -16.1746 85.9331 15.0597 -2.94934 -3.49949 -1.50754 4.96962e-017 1.98785e-016 -3.66043e-015 62.4135 -1.77796 23.727 16.1698 85.9132 -15.0638 3.01328 -3.70796 1.2225 1.69586e-006 -3.43571e-006 1.40212e-006 
1.63375 8.91635 14.5028 1.04343e-008 21.8735 7.44913e-008 0.0694822 17.4597 -0.539631 0.347768 34.9179 -1.19285 0.347762 34.9176 -1.19284 5.79152e-005 -48.0046 7.70586e-005 -11.0606 -33.707 -5.6546 45.2192 11.0999 -29.437 111.92 -52.2395 82.9273 -2.45181 -67.5253 47.8775 -45.8573 0.121337 -6.52029 2.35847e-006 1.68756e-007 -4.49347e-006 -8.10892e-006 -1.47326e-006 -4.75668e-006 9.26058e-007 4.59118e-006 1.65267e-006 2.35847e-006 1.68756e-007 -4.49347e-006 -0.0127783 0.00232175 7.72453e-005 -1.59028e-015 -3.18055e-015 3.18055e-015 2.35847e-006 1.68756e-007 -4.49347e-006 -0.0160627 0.00300741 0.000856143 -1.41615e-006 -5.99109e-006 1.33581e-006 2.35847e-006 1.68756e-007 -4.49347e-006 -0.0126083 0.00313324 0.00283596 -8.09057e-006 -4.88519e-006 -2.76655e-006 2.35847e-006 1.68756e-007 -4.49347e-006 -8.10892e-006 -1.47326e-006 -4.75668e-006 9.26058e-007 4.59118e-006 1.65267e-006 -19.0816 -0.797423 17.2804 -130.366 -59.4439 -44.5342 14.4404 -47.0006 -47.892 60.6595 -40.9481 16.6375 -1.47101e-014 4.37326e-015 -0 -1.39149e-014 4.37326e-015 -3.18055e-015 -1.65057e-006 -2.15815e-006 1.76246e-006 -1.47101e-014 4.37326e-015 -0 0.0129442 0.00231428 -9.15223e-005 -1.58587e-006 -1.23044e-006 1.59226e-007 -1.47101e-014 4.37326e-015 -0 0.0163405 0.00303814 -0.000873171 -6.48196e-008 -9.0335e-007 1.60318e-006 -1.47101e-014 4.37326e-015 -0 0.0145783 0.00367742 -0.00325809 -9.14409e-015 7.95139e-016 -3.18055e-015 -1.47101e-014 4.37326e-015 -0 -1.39149e-014 4.37326e-015 -3.18055e-015 -1.65057e-006 -2.15815e-006 1.76246e-006 -62.7408 -1.98686 -24.0845 -17.7368 86.2027 16.6113 -2.95284 -3.51459 -1.49798 2.68271e-007 1.20967e-005 -1.16197e-005 62.5746 -2.0224 23.9061 17.7246 86.184 -16.6076 3.01324 -3.71154 1.22874 -3.72721e-017 9.93923e-017 8.21443e-015 
1.63375 8.87399 14.3295 -5.67011e-009 21.9986 -7.82381e-008 0.0694325 17.4554 -0.539541 0.347554 34.9094 -1.19258 0.347549 34.9092 -1.19257 5.86523e-005 -48.0046 7.67635e-005 -11.3405 -33.6238 -5.8103 44.7741 10.1915 -29.4142 111.146 -52.4995 82.3674 -2.42146 -67.5167 47.9061 -46.091 0.642992 -6.01272 1.59028e-015 1.59028e-015 -3.18055e-015 -5.56597e-015 6.36111e-015 -3.18055e-015 -1.59028e-015 0 -0 1.59028e-015 1.59028e-015 -3.18055e-015 -0.0128203 0.00231293 8.32082e-005 -3.97569e-015 0 -9.54166e-015 1.59028e-015 1.59028e-015 -3.18055e-015 -0.0160446 0.00298448 0.000863013 8.8081e-006 1.4558e-006 7.8742e-006 1.59028e-015 1.59028e-015 -3.18055e-015 -0.0125423 0.0031065 0.00280856 -7.63379e-006 -6.67178e-007 -2.94328e-006 1.59028e-015 1.59028e-015 -3.18055e-015 -5.56597e-015 6.36111e-015 -3.18055e-015 -1.59028e-015 0 -0 -19.0902 -0.884602 17.1588 -130.366 -59.4439 -44.534 14.4404 -47.0007 -47.8919 60.6595 -40.9481 16.6375 -1.39149e-015 -1.19271e-015 -3.18055e-015 -1.19271e-015 -7.95139e-016 -6.36111e-015 -8.98764e-006 6.71012e-006 1.56968e-006 -1.39149e-015 -1.19271e-015 -3.18055e-015 0.0129703 0.0023241 -8.63294e-005 5.96354e-016 1.85634e-006 6.36111e-015 -1.39149e-015 -1.19271e-015 -3.18055e-015 0.0163241 0.00303784 -0.000869694 1.32203e-007 9.00002e-007 -3.20627e-006 -1.39149e-015 -1.19271e-015 -3.18055e-015 0.0146409 0.00370048 -0.00327814 1.19271e-015 0 -6.36111e-015 -1.39149e-015 -1.19271e-015 -3.18055e-015 -1.19271e-015 -7.95139e-016 -6.36111e-015 -8.98764e-006 6.71012e-006 1.56968e-006 -62.8941 -2.23223 -24.2543 -19.5363 86.4692 18.4 -2.95635 -3.52973 -1.48844 3.6526e-006 5.07933e-006 -1.24907e-005 62.7364 -2.26639 24.0859 19.5162 86.4516 -18.3881 3.01319 -3.71516 1.23507 1.87683e-007 -1.03198e-005 -1.15127e-005 
